<svg width="875" height="102" viewBox="0 0 875 102" fill="none" xmlns="http://www.w3.org/2000/svg">
<path d="M830.485 7C821.868 7 813.445 9.55526 806.28 14.3426C799.115 19.13 793.531 25.9345 790.233 33.8956C786.936 41.8568 786.073 50.617 787.754 59.0684C789.435 67.5199 793.585 75.2831 799.678 81.3763C805.771 87.4695 813.534 91.619 821.986 93.3001C830.437 94.9812 839.197 94.1184 847.158 90.8208C855.119 87.5232 861.924 81.9389 866.711 74.7741C871.499 67.6092 874.054 59.1857 874.054 50.5686C874.043 39.017 869.449 27.9418 861.28 19.7736C853.112 11.6053 842.037 7.01142 830.485 7ZM830.485 73.4314C825.964 73.4314 821.543 72.0905 817.783 69.5783C814.024 67.0661 811.093 63.4954 809.363 59.3178C807.633 55.1402 807.18 50.5433 808.062 46.1083C808.944 41.6734 811.122 37.5996 814.319 34.4022C817.516 31.2048 821.59 29.0273 826.025 28.1452C830.46 27.263 835.057 27.7158 839.235 29.4462C843.412 31.1766 846.983 34.107 849.495 37.8668C852.007 41.6265 853.348 46.0468 853.348 50.5686C853.341 56.6301 850.93 62.4414 846.644 66.7275C842.358 71.0136 836.547 73.4245 830.485 73.4314Z" fill="#245BF5"/>
<path d="M705.819 27.7059H729.113V95H749.819V27.7059H773.113V7H705.819V27.7059Z" fill="#245BF5"/>
<path d="M590.211 7H529.819V24.2549H590.211V7Z" fill="#28F09E"/>
<path d="M346.917 27.7059H370.211V94.1373H390.917V27.7059H414.211V7H346.917V27.7059Z" fill="#245BF5"/>
<path d="M488.407 40.4314H453.897V7H433.191V94.1373H453.897V61.1373H488.407V94.1373H509.113V7H488.407V40.4314Z" fill="#245BF5"/>
<path d="M590.211 41.9412H529.819V59.1961H590.211V41.9412Z" fill="#28F09E"/>
<path d="M590.211 76.8823H529.819V94.1372H590.211V76.8823Z" fill="#28F09E"/>
<path d="M666.132 57.1427L631.925 7.42275L631.623 7H610.917V94.1373H631.623V43.5459L665.537 93.2831L666.132 94.0596L666.193 94.1373H686.838V87.2353V7H666.132V57.1427Z" fill="#245BF5"/>
<path d="M307.23 55.7451C307.23 60.4358 305.367 64.9344 302.05 68.2512C298.733 71.568 294.235 73.4314 289.544 73.4314C284.853 73.4314 280.355 71.568 277.038 68.2512C273.721 64.9344 271.858 60.4358 271.858 55.7451V7H251.152V55.7451C251.152 65.9273 255.197 75.6925 262.397 82.8925C269.597 90.0924 279.362 94.1373 289.544 94.1373C299.726 94.1373 309.492 90.0924 316.691 82.8925C323.891 75.6925 327.936 65.9273 327.936 55.7451V7H307.23V55.7451Z" fill="#245BF5"/>
<path d="M214.917 94.1373H235.623L201.976 7H181.27L147.623 94.1373H168.328L175.161 76.451H208.084L214.917 94.1373ZM181.822 59.1961L191.623 33.8141L201.423 59.1961H181.822Z" fill="#245BF5"/>
<path d="M115.623 102H45.9743L34.8554 80.4622H104.513L115.623 102Z" fill="#245BF5"/>
<path d="M0 98.0602L34.6491 37.6375L58.8613 38.7054L24.2122 99.1282L0 98.0602Z" fill="#245BF5"/>
<path d="M60.7727 0L96.3013 59.9113L83.4413 80.462L47.9128 20.5418L60.7727 0Z" fill="#245BF5"/>
</svg>
